<svg width="48" height="48" viewBox="0 0 48 48" fill="none" xmlns="http://www.w3.org/2000/svg">
<path d="M14.1366 15.8078C14.5475 16.2316 14.5475 16.9117 14.1366 17.3355L7.91949 23.7483C7.62138 24.0558 7.62138 24.5492 7.91949 24.8567L14.1366 31.2695C14.5475 31.6933 14.5475 32.3734 14.1366 32.7972C13.7165 33.2305 13.0282 33.2305 12.6081 32.7972L5.44717 25.4109C4.85094 24.7959 4.85094 23.809 5.44717 23.194L12.6081 15.8078C13.0282 15.3744 13.7165 15.3744 14.1366 15.8078Z" fill="#333333"/>
<path d="M33.5703 15.7796C33.1332 16.2143 33.1332 16.9289 33.5703 17.3637L39.9791 23.7381C40.2906 24.0479 40.2906 24.5571 39.9791 24.8669L33.5703 31.2413C33.1332 31.6761 33.1332 32.3906 33.5703 32.8254C33.9949 33.2477 34.6741 33.2477 35.0987 32.8254L42.5328 25.4312C43.1557 24.8116 43.1557 23.7933 42.5328 23.1738L35.0987 15.7796C34.6741 15.3573 33.9949 15.3573 33.5703 15.7796Z" fill="#333333"/>
<path d="M29.4185 9.06264C29.982 9.26428 30.2772 9.89216 30.0772 10.4638L19.9982 39.2703C19.7989 39.8399 19.1831 40.1383 18.6216 39.9374C18.0581 39.7357 17.763 39.1078 17.963 38.5362L28.042 9.7297C28.2413 9.1601 28.857 8.86171 29.4185 9.06264Z" fill="#333333"/>
</svg>
