<svg width="24" height="24" viewBox="0 0 24 24" fill="none" xmlns="http://www.w3.org/2000/svg">
<path d="M17 21.1209C17 21.6064 16.602 22 16.1111 22H7.88889C7.39797 22 7 21.6064 7 21.1209V2.87912C7 2.3936 7.39797 2 7.88889 2H16.1111C16.602 2 17 2.3936 17 2.87912V21.1209ZM9.22222 13.7582C8.7313 13.7582 8.33333 14.1518 8.33333 14.6374V19.8022C8.33333 20.2877 8.7313 20.6813 9.22222 20.6813H14.7778C15.2687 20.6813 15.6667 20.2877 15.6667 19.8022V14.6374C15.6667 14.1518 15.2687 13.7582 14.7778 13.7582H9.22222ZM9.22222 8.15385C8.7313 8.15385 8.33333 8.54744 8.33333 9.03297V11.5604C8.33333 12.046 8.7313 12.4396 9.22222 12.4396H14.7778C15.2687 12.4396 15.6667 12.046 15.6667 11.5604V9.03297C15.6667 8.54744 15.2687 8.15385 14.7778 8.15385H9.22222ZM8.33333 5.95604C8.33333 6.44157 8.7313 6.83516 9.22222 6.83516H14.7778C15.2687 6.83516 15.6667 6.44157 15.6667 5.95604V4.1978C15.6667 3.71228 15.2687 3.31868 14.7778 3.31868H9.22222C8.7313 3.31868 8.33333 3.71228 8.33333 4.1978V5.95604Z" fill="currentColor"/>
</svg>
