<svg width="48" height="48" viewBox="0 0 48 48" fill="none" xmlns="http://www.w3.org/2000/svg">
<path d="M20.0625 6C22.1541 6 24.105 6.16183 25.913 6.46153C26.6565 6.58477 26.9396 7.49421 26.4931 8.10131V8.10131C26.2634 8.41367 25.8793 8.57935 25.4966 8.51729C23.9948 8.27377 22.3743 8.12982 20.6326 8.1041L20.0625 8.1C11.6713 8.1 5.1 14.4525 5.1 22.0125C5.1 25.6193 7.05392 28.6307 9.62249 31.06C12.1848 33.4834 15.1204 35.0996 16.6146 35.924L18.9689 37.216C21.1584 38.4091 22.8674 39.3069 24.2164 39.9266C25.1135 40.3387 25.7843 40.5965 26.2851 40.7366C26.4413 40.7804 26.5671 40.8077 26.666 40.8259C26.6804 40.7654 26.6966 40.6939 26.7116 40.61C26.8793 39.6768 26.8875 38.2266 26.8875 35.925V34.3003L28.4605 33.8922C32.6548 32.8047 35.6239 30.9652 37.5434 28.8539C37.724 28.6553 37.9783 28.5293 38.2452 28.5008V28.5008C39.1603 28.4029 39.8711 29.3898 39.2638 30.0813C37.0276 32.6273 33.6179 34.7245 28.9875 35.925L28.9844 37.4841C28.9387 44.2989 28.2522 44.6673 17.9563 39.056L15.6 37.7625C12.6121 36.114 3 30.856 3 22.0125C3 13.169 10.6391 6 20.0625 6Z" fill="currentColor"/>
<path d="M36.5998 7.05C37.1796 7.05 37.6495 7.51999 37.6496 8.0998V14.925H43.9504C44.53 14.9252 45.0001 15.3951 45.0002 15.9748C45.0002 16.5546 44.5301 17.0244 43.9504 17.0246H37.6496V23.3254C37.6494 23.9051 37.1796 24.3752 36.5998 24.3752C36.0201 24.3751 35.5502 23.905 35.55 23.3254V17.0246H28.7248C28.145 17.0245 27.675 16.5546 27.675 15.9748C27.6751 15.3951 28.1451 14.9251 28.7248 14.925H35.55V8.0998C35.5501 7.52006 36.0201 7.0501 36.5998 7.05Z" fill="#2B93EE"/>
</svg>
