<svg width="24" height="24" viewBox="0 0 24 24" fill="none" xmlns="http://www.w3.org/2000/svg">
<path d="M11.0168 4C11.2601 4 11.4848 4.12841 11.6064 4.33686L12.7365 6.27367C12.8581 6.48211 13.0829 6.61053 13.3261 6.61053H20.9787C21.5428 6.61053 22 7.06295 22 7.62105V18.9895C22 19.5476 21.5428 20 20.9787 20H3.02128C2.45724 20 2 19.5476 2 18.9895V5.01053C2 4.45243 2.45724 4 3.02128 4H11.0168ZM3.02128 17.9789C3.02128 18.537 3.47852 18.9895 4.04255 18.9895H19.9574C20.5215 18.9895 20.9787 18.537 20.9787 17.9789V8.63158C20.9787 8.07348 20.5215 7.62105 19.9574 7.62105H12.7365C12.4933 7.62105 12.2685 7.49264 12.1469 7.28419L11.0169 5.34739C10.8952 5.13894 10.6705 5.01053 10.4272 5.01053H4.04255C3.47852 5.01053 3.02128 5.46295 3.02128 6.02105V17.9789Z" fill="currentColor"/>
</svg>
