<svg width="48" height="48" viewBox="0 0 48 48" fill="none" xmlns="http://www.w3.org/2000/svg">
<path d="M21.7675 3.0009C25.3365 2.97603 28.9726 3.46605 31.934 4.51696C34.8518 5.55245 37.3445 7.21945 38.2223 9.70923L38.2553 9.80341C38.27 9.84503 38.2777 9.88878 38.2777 9.93291V24.2711C38.2777 24.9387 37.5548 25.3691 36.9334 25.1251V25.1251C36.5816 24.987 36.3333 24.6542 36.3333 24.2763V21.3922C36.3333 21.0573 35.9336 20.8741 35.6683 21.0785C31.909 23.9757 26.3678 25.055 21.2054 24.8728C18.0154 24.7603 14.8757 24.1665 12.2374 23.1601C10.8964 22.6485 9.65533 22.0186 8.59841 21.2703C8.33045 21.0806 7.94444 21.2663 7.94444 21.5946V26.8818C7.94446 26.9498 7.9618 27.0167 7.99723 27.0748C8.70267 28.2288 10.194 29.361 12.3388 30.2744C14.6204 31.246 17.4934 31.9057 20.5222 32.0942C20.8666 32.1157 21.212 32.131 21.5579 32.14C22.1472 32.1554 22.5804 32.7122 22.4826 33.2936V33.2936C22.4074 33.7407 22.0325 34.0958 21.5793 34.0852C21.1842 34.076 20.7913 34.0592 20.4014 34.0349C17.1837 33.8346 14.0896 33.1331 11.577 32.0631C10.486 31.5985 9.4746 31.0511 8.60487 30.4251C8.33634 30.2321 7.94455 30.4176 7.94444 30.7483V34.3087C7.94446 34.7968 8.05041 35.2049 8.25548 35.5054L8.36105 35.6558C9.4761 37.2002 11.3407 38.4656 13.6965 39.3646C16.1177 40.2886 18.9825 40.7956 21.8852 40.8393C22.4133 40.8472 22.9396 40.8394 23.4622 40.8167C23.7826 40.8028 24.0863 40.9604 24.2706 41.2228V41.2228C24.6927 41.8238 24.3573 42.7215 23.6238 42.7556C23.0333 42.7831 22.4429 42.7922 21.8559 42.7834C18.76 42.7368 15.6662 42.1976 13.0034 41.1815C10.4343 40.2011 8.19446 38.748 6.78347 36.7924L6.64941 36.6014C6.15902 35.8828 6.00002 35.0543 6 34.3087V9.9614C6 9.93021 6.00359 9.89902 6.01101 9.86873L6.0281 9.79961C6.63436 7.34163 8.99592 5.67736 11.7802 4.63241C14.6221 3.56583 18.1994 3.02577 21.7675 3.0009ZM8.59044 12.8876C8.32209 12.7053 7.94454 12.8917 7.94444 13.2161V17.8599C7.94448 17.9418 7.96977 18.0218 8.01926 18.087C8.98475 19.3591 10.6878 20.4878 12.9301 21.3432C15.3412 22.263 18.266 22.8237 21.2737 22.9299C27.3026 23.1427 33.3006 21.5309 36.252 17.8071C36.3053 17.7399 36.3333 17.6563 36.3333 17.5705V13.4834C36.3333 13.1529 35.9419 12.9671 35.6725 13.1587C34.5427 13.9624 33.1994 14.5953 31.7525 15.0781C28.9622 16.0091 25.648 16.4306 22.3466 16.3932C19.0436 16.3559 15.7032 15.8586 12.8553 14.9148C11.2811 14.3931 9.81786 13.7213 8.59044 12.8876ZM21.7811 4.94534C18.3736 4.96909 15.0358 5.48779 12.4638 6.45305C10.2149 7.29704 8.75428 8.40022 8.14952 9.63023C8.08597 9.75949 8.11064 9.91343 8.20725 10.0203C9.32562 11.2567 11.1495 12.3011 13.4667 13.0691C16.0936 13.9397 19.2308 14.4133 22.3686 14.4488C25.5082 14.4843 28.5986 14.0809 31.1372 13.2339C33.3775 12.4865 35.0842 11.4297 36.0785 10.1251C36.164 10.0127 36.176 9.86098 36.107 9.73771C35.3356 8.36154 33.6728 7.19755 31.2838 6.34975C28.5882 5.39312 25.1877 4.92161 21.7811 4.94534Z" fill="currentColor"/>
<path d="M41 35.6667C41 31.5859 37.6919 28.2778 33.6111 28.2778C29.5303 28.2778 26.2222 31.5859 26.2222 35.6667C26.2222 39.7474 29.5303 43.0556 33.6111 43.0556V45C28.4564 45 24.2778 40.8213 24.2778 35.6667C24.2778 30.512 28.4564 26.3334 33.6111 26.3334C38.7657 26.3334 42.9444 30.512 42.9444 35.6667C42.9444 40.8213 38.7657 45 33.6111 45V43.0556C37.6919 43.0556 41 39.7474 41 35.6667Z" fill="currentColor"/>
<path d="M33.6111 31.1945C34.148 31.1945 34.5833 31.6297 34.5833 32.1667V34.6945H37.1111L37.2106 34.6994C37.7008 34.7492 38.0833 35.1633 38.0833 35.6667C38.0833 36.17 37.7008 36.5841 37.2106 36.634L37.1111 36.6389H34.5833V39.1667C34.5833 39.7036 34.148 40.1389 33.6111 40.1389C33.0741 40.1389 32.6389 39.7036 32.6389 39.1667V36.6389H30.1111C29.5741 36.6389 29.1389 36.2036 29.1389 35.6667C29.1389 35.1297 29.5741 34.6945 30.1111 34.6945H32.6389V32.1667C32.6389 31.6297 33.0741 31.1945 33.6111 31.1945Z" fill="#2B93EE"/>
</svg>
