<svg width="48" height="48" viewBox="0 0 48 48" fill="none" xmlns="http://www.w3.org/2000/svg">
<path d="M37.56 3C38.6204 3 39.48 3.85961 39.48 4.92V21.9047C39.48 22.4349 39.0502 22.8647 38.52 22.8647C37.9898 22.8647 37.56 22.4349 37.56 21.9047V6.84C37.56 5.77961 36.7004 4.92 35.64 4.92H18.8958C17.8354 4.92 16.9758 5.77961 16.9758 6.84V15.7448C16.9758 16.8052 16.1162 17.6648 15.0558 17.6648H6.84C5.77961 17.6648 4.92 18.5245 4.92 19.5848V38.04C4.92 39.1004 5.77961 39.96 6.84 39.96H22.2895C22.8197 39.96 23.2495 40.3898 23.2495 40.92C23.2495 41.4502 22.8197 41.88 22.2895 41.88H4.92C3.85961 41.88 3 41.0204 3 39.96V17.087C3 16.5963 3.18792 16.1241 3.52516 15.7676L15.0342 3.60059C15.3969 3.21721 15.9013 3 16.4291 3H37.56ZM6.95545 14.935C6.66598 15.241 6.88292 15.7448 7.30415 15.7448H13.1358C14.1962 15.7448 15.0558 14.8852 15.0558 13.8248V7.57764C15.0558 7.14355 14.5254 6.93243 14.2271 7.24779L6.95545 14.935Z" fill="currentColor"/>
<path d="M37.08 32.28C37.08 33.3404 37.9396 34.2 39 34.2H44.04C44.5702 34.2 45 34.6298 45 35.16C45 35.6902 44.5702 36.12 44.04 36.12H39C37.9396 36.12 37.08 36.9796 37.08 38.04V43.56C37.08 44.0902 36.6502 44.52 36.12 44.52C35.5898 44.52 35.16 44.0902 35.16 43.56V38.04C35.16 36.9796 34.3004 36.12 33.24 36.12H27.96C27.4298 36.12 27 35.6902 27 35.16C27 34.6298 27.4298 34.2 27.96 34.2H33.24C34.3004 34.2 35.16 33.3404 35.16 32.28V27.48C35.16 26.9498 35.5898 26.52 36.12 26.52C36.6502 26.52 37.08 26.9498 37.08 27.48V32.28Z" fill="#2B93EE"/>
</svg>
