<svg width="48" height="48" viewBox="0 0 48 48" fill="none" xmlns="http://www.w3.org/2000/svg">
<path d="M37.2067 3C37.7131 3 38.1987 3.20114 38.5567 3.55916L43.009 8.01151C43.367 8.36953 43.5682 8.85512 43.5682 9.36144V20.4205C43.5682 20.9476 43.1408 21.375 42.6136 21.375C42.0865 21.375 41.6591 20.9476 41.6591 20.4205V10.1519C41.6591 9.6456 41.458 9.16001 41.0999 8.80199L37.7662 5.46825C37.4082 5.11023 36.9226 4.90909 36.4163 4.90909H15.4091C14.3547 4.90909 13.5 5.76382 13.5 6.81818V18.5114C13.5 19.0385 13.0726 19.4659 12.5455 19.4659C12.0183 19.4659 11.5909 19.0385 11.5909 18.5114V12.7841C11.5909 12.2569 11.1635 11.8295 10.6364 11.8295H5.86364C5.33646 11.8295 4.90909 12.2569 4.90909 12.7841V39.3401C4.90909 39.8283 5.55554 40.0016 5.79969 39.5787L13.8298 25.6704C14.1708 25.0798 14.8011 24.7159 15.4831 24.7159H42.2624C43.732 24.7159 44.6505 26.3068 43.9157 27.5796L34.4088 44.0455C34.0678 44.6361 33.4376 45 32.7555 45H4.90909C3.85473 45 3 44.1453 3 43.0909V11.8295C3 10.7752 3.85473 9.92045 4.90909 9.92045H10.6364C11.1635 9.92045 11.5909 9.49309 11.5909 8.96591V4.90909C11.5909 3.85473 12.4456 3 13.5 3H37.2067ZM6.38977 42.375C6.20606 42.6932 6.43569 43.0909 6.8031 43.0909H31.6532C32.3353 43.0909 32.9655 42.727 33.3065 42.1364L41.8489 27.3409C42.0326 27.0227 41.8029 26.625 41.4355 26.625H16.5854C15.9034 26.625 15.2731 26.9889 14.9321 27.5795L6.38977 42.375Z" fill="currentColor"/>
<path d="M35.0444 15.8864C35.0444 16.4135 34.617 16.8409 34.0898 16.8409C33.5627 16.8409 33.1353 16.4135 33.1353 15.8864V14.5481C33.1353 14.1806 32.7376 13.951 32.4194 14.1347L26.3006 17.6674C25.6642 18.0349 24.8688 17.5756 24.8688 16.8408V14.5481C24.8688 14.1807 24.471 13.951 24.1529 14.1348L18.8609 17.1903C18.4043 17.454 17.8204 17.2975 17.5568 16.8408C17.2932 16.3842 17.4497 15.8004 17.9063 15.5368L26.062 10.8283C26.3802 10.6446 26.7779 10.8742 26.7779 11.2416V11.8807C26.7779 13.3503 28.3687 14.2688 29.6414 13.5341L34.3285 10.8283C34.6467 10.6446 35.0444 10.8742 35.0444 11.2416V15.8864Z" fill="#2B93EE"/>
<path d="M42.8523 33.5455C43.3795 33.5455 43.8068 33.9728 43.8068 34.5V41.6591C43.8068 42.7135 42.9521 43.5682 41.8977 43.5682H39.75C39.2228 43.5682 38.7955 43.1408 38.7955 42.6136C38.7955 42.0865 39.2228 41.6591 39.75 41.6591H41.4205C41.684 41.6591 41.8977 41.4454 41.8977 41.1818V34.5C41.8977 33.9728 42.3251 33.5455 42.8523 33.5455Z" fill="currentColor"/>
</svg>
