<svg width="24" height="24" viewBox="0 0 24 24" fill="none" xmlns="http://www.w3.org/2000/svg">
<path fill-rule="evenodd" clip-rule="evenodd" d="M20.7348 2.1807C20.9766 2.42164 20.9766 2.81229 20.7348 3.05323L20.3078 3.47863C19.8301 3.95452 19.8301 4.72608 20.3078 5.20197L21.8186 6.70717C22.0605 6.94811 22.0605 7.33875 21.8186 7.57969C21.5768 7.82062 21.1847 7.82062 20.9428 7.57969L19.2131 5.85635C18.8563 5.50093 18.2779 5.50093 17.9212 5.85635C17.5644 6.21177 17.5644 6.78801 17.9212 7.14343L19.651 8.86676C19.8928 9.1077 19.8928 9.49834 19.651 9.73928C19.4091 9.98021 19.017 9.98021 18.7752 9.73928L17.2753 8.24497C16.7916 7.76306 16.0073 7.76305 15.5236 8.24494L13.4585 10.3022C13.0033 10.7557 12.9861 11.4758 13.3023 12.0346C13.7955 12.9061 14.077 13.9122 14.077 14.984C14.077 18.3065 11.3734 21 8.03849 21C4.70352 21 2 18.3065 2 14.984C2 11.6615 4.70352 8.96799 8.03849 8.96799C9.05017 8.96799 10.0037 9.21592 10.8413 9.65406C11.396 9.94425 12.095 9.91552 12.5381 9.47412L19.859 2.1807C20.1009 1.93976 20.4929 1.93977 20.7348 2.1807ZM8.03849 10.202C5.38762 10.202 3.23866 12.343 3.23866 14.984C3.23866 17.625 5.38762 19.7659 8.03849 19.7659C10.6894 19.7659 12.8383 17.625 12.8383 14.984C12.8383 12.343 10.6894 10.202 8.03849 10.202Z" fill="currentColor"/>
</svg>
