<svg width="48" height="48" viewBox="0 0 48 48" fill="none" xmlns="http://www.w3.org/2000/svg">
<path d="M7.83938 26.5995C7.8394 23.5658 8.81487 20.0229 11.5424 17.2419C14.174 14.5587 18.5419 12.4781 25.5469 12.3507L26.2331 12.3444H36.9498C37.4202 12.3444 37.5871 12.9672 37.1797 13.2025L28.639 18.1333C28.1992 18.3873 28.0485 18.9497 28.3024 19.3896C28.5564 19.8294 29.1188 19.9801 29.5587 19.7262L41.1781 13.0176C42.4043 12.3097 42.4043 10.5397 41.1781 9.83176L29.5589 3.12339C29.1189 2.86937 28.5563 3.02014 28.3024 3.46014C28.0484 3.90009 28.1992 4.4626 28.6391 4.71658L37.1788 9.64693C37.5862 9.88216 37.4193 10.505 36.9489 10.505H26.2331L25.5128 10.5117C18.1498 10.6462 13.2775 12.8461 10.2293 15.954C7.09386 19.1509 6.00002 23.1955 6 26.5995C6 32.7485 7.03433 37.4479 10.245 40.5668C13.4123 43.6436 15.265 44.9721 22.7836 44.9987C22.784 44.9987 22.7843 44.999 22.7843 44.9993C22.7843 44.9997 22.7846 45 22.785 45H22.8992C22.9627 45 23.0142 44.9485 23.0142 44.885V44.0803C23.0142 43.5724 22.5985 43.1616 22.0906 43.1535C15.3731 43.0461 14.0773 41.7252 11.5267 39.2475C8.87439 36.671 7.83938 32.63 7.83938 26.5995Z" fill="currentColor"/>
<path d="M26.693 43.1296C26.185 43.1296 25.7733 43.5414 25.7733 44.0493C25.7733 44.5573 26.185 44.969 26.693 44.969H33.8205C34.3285 44.969 34.7402 44.5573 34.7402 44.0493C34.7402 43.5414 34.3285 43.1296 33.8205 43.1296H26.693Z" fill="#2B93EE"/>
</svg>
