<svg width="24" height="24" viewBox="0 0 48 48" fill="none" xmlns="http://www.w3.org/2000/svg">
<path d="M5.68 5.52C5.68 5.05608 6.05608 4.68 6.52 4.68H32.7027C32.8838 4.68 33.0593 4.73856 33.2035 4.8457L33.2634 4.89451L42.3607 13.0455C42.5385 13.2049 42.64 13.4327 42.64 13.6714V42.48C42.64 42.9439 42.2639 43.32 41.8 43.32H6.52C6.05608 43.32 5.68 42.9439 5.68 42.48V5.52ZM4 42.48C4 43.8718 5.12824 45 6.52 45H41.8C43.1918 45 44.32 43.8718 44.32 42.48V13.6714C44.32 12.9551 44.0151 12.2726 43.4816 11.7946L34.3844 3.64312L34.2962 3.56766C33.8473 3.20125 33.2846 3 32.7027 3H6.52C5.12824 3 4 4.12824 4 5.52V42.48Z" fill="currentColor"/>
<path d="M26.05 9.72C26.05 9.25608 25.6739 8.88 25.21 8.88H11.56C11.0961 8.88 10.72 9.25608 10.72 9.72V16.23C10.72 16.6939 11.0961 17.07 11.56 17.07H25.21C25.6739 17.07 26.05 16.6939 26.05 16.23V9.72ZM27.73 16.23C27.73 17.6218 26.6018 18.75 25.21 18.75H11.56C10.1682 18.75 9.04 17.6218 9.04 16.23V9.72C9.04 8.32824 10.1682 7.2 11.56 7.2H25.21C26.6018 7.2 27.73 8.32824 27.73 9.72V16.23Z" fill="currentColor"/>
<path d="M30.46 30.93C30.46 27.5666 27.7334 24.84 24.37 24.84C21.0066 24.84 18.28 27.5666 18.28 30.93C18.28 34.2934 21.0066 37.02 24.37 37.02V38.7C20.0787 38.7 16.6 35.2213 16.6 30.93C16.6 26.6388 20.0787 23.16 24.37 23.16C28.6613 23.16 32.14 26.6388 32.14 30.93C32.14 35.2213 28.6613 38.7 24.37 38.7V37.02C27.7334 37.02 30.46 34.2934 30.46 30.93Z" fill="currentColor"/>
</svg>
