<svg width="128" height="128" viewBox="0 0 128 128" fill="none" xmlns="http://www.w3.org/2000/svg">
<path d="M56.8128 4.00256C66.9564 3.93187 77.2906 5.32456 85.7072 8.31136C94.0001 11.2543 101.084 15.9921 103.579 23.0683L103.673 23.336C103.715 23.4543 103.737 23.5786 103.737 23.7041V66.9874C103.737 67.7529 102.909 68.2388 102.222 67.9006C101.149 67.3719 100.039 66.9046 98.8989 66.5035C98.4902 66.3598 98.2105 65.9774 98.2105 65.5441V56.2727C98.2104 55.3209 97.0745 54.8001 96.3206 55.3811C85.6363 63.6152 69.8874 66.6828 55.2154 66.165C46.149 65.845 37.2257 64.1574 29.7274 61.2971C25.9162 59.8432 22.3889 58.0529 19.385 55.9262C18.6234 55.387 17.5263 55.9148 17.5263 56.848V71.8748C17.5264 72.068 17.5756 72.2582 17.6763 72.4231C19.6813 75.7029 23.9199 78.9208 30.0156 81.5167C36.5002 84.2782 44.6654 86.153 53.2736 86.689C54.9221 86.7916 56.5784 86.8448 58.2347 86.8466C58.9054 86.8474 59.3962 87.4872 59.2415 88.1398C58.9837 89.2272 58.7846 90.3372 58.6471 91.4662C58.5848 91.9782 58.1566 92.3725 57.6409 92.3687C56.0584 92.3567 54.4859 92.3013 52.9304 92.2045C43.7854 91.6352 34.9915 89.6415 27.8504 86.6005C24.7498 85.28 21.8752 83.7244 19.4033 81.9452C18.6401 81.3964 17.5266 81.9237 17.5263 82.8637V92.9827C17.5264 94.37 17.8275 95.5297 18.4103 96.3838L18.7104 96.8112C21.8794 101.201 27.1788 104.797 33.8743 107.352C40.7556 109.978 48.8978 111.419 57.1474 111.543C58.9469 111.57 60.7391 111.533 62.5141 111.436C62.8788 111.416 63.2257 111.594 63.4269 111.899C64.1587 113.008 64.9612 114.067 65.8281 115.068C66.3755 115.7 66.0086 116.716 65.1752 116.787C62.4724 117.017 59.7555 117.109 57.0643 117.069C48.2654 116.936 39.4725 115.404 31.9045 112.516C24.6029 109.73 18.2369 105.6 14.2267 100.042L13.8457 99.4988C12.4519 97.4565 12.0001 95.1019 12 92.9827V23.785C12 23.6964 12.0102 23.6078 12.0313 23.5217L12.0799 23.3252C13.8029 16.3394 20.5147 11.6094 28.4278 8.63948C36.505 5.60815 46.6719 4.07324 56.8128 4.00256ZM19.3623 32.1015C18.5996 31.5836 17.5266 32.1133 17.5263 33.0351V46.2335C17.5264 46.4662 17.5983 46.6937 17.7389 46.879C20.483 50.4942 25.3234 53.7023 31.6961 56.1334C38.5487 58.7475 46.8612 60.3412 55.4096 60.643C72.5444 61.2477 89.5912 56.6668 97.9795 46.0835C98.131 45.8925 98.2105 45.6548 98.2105 45.4111V33.795C98.2104 32.8556 97.098 32.3276 96.3324 32.8722C93.1214 35.1563 89.3035 36.9552 85.1913 38.3272C77.261 40.9731 67.8417 42.1713 58.4588 42.0651C49.0712 41.9588 39.5776 40.5456 31.4835 37.8631C27.0095 36.3803 22.8508 34.4711 19.3623 32.1015ZM56.8517 9.52887C47.1672 9.59636 37.6807 11.0706 30.3707 13.8139C23.9792 16.2127 19.828 19.348 18.1092 22.8438C17.9286 23.2112 17.9987 23.6487 18.2732 23.9523C21.4518 27.4665 26.6354 30.4347 33.2213 32.6174C40.6871 35.0917 49.6033 36.4378 58.5214 36.5387C67.4444 36.6398 76.2276 35.4932 83.4427 33.0859C89.8097 30.9615 94.6605 27.9581 97.4863 24.2502C97.7295 23.9308 97.7634 23.4996 97.5672 23.1493C95.375 19.2381 90.649 15.9299 83.8594 13.5203C76.198 10.8015 66.5334 9.46142 56.8517 9.52887Z" fill="#333333"/>
<path d="M90 70C104.359 70 116 81.6406 116 96C116 110.359 104.359 122 90 122C75.6406 122 64 110.359 64 96C64 81.6406 75.6406 70 90 70ZM83.2422 80.0732C82.6561 80.1244 82.1055 80.202 81.5908 80.3066C80.5852 80.5027 79.733 80.8568 79.0342 81.3682C78.3354 81.8795 77.803 82.5953 77.4365 83.5156C77.0786 84.436 76.8994 85.6164 76.8994 87.0566V90.3164C76.8994 91.6543 76.6097 92.6221 76.0303 93.2188C75.6194 93.6419 74.9805 93.9126 74.1152 94.0312C73.5033 94.1153 73 94.6021 73 95.2197C73 95.3554 73.0251 95.4852 73.0693 95.6055C73.0251 95.772 73 95.9465 73 96.127V96.3701C73 96.5502 73.0252 96.7244 73.0693 96.8906C73.0249 97.0111 73 97.1414 73 97.2773C73 97.895 73.5035 98.3815 74.1152 98.4668C74.9806 98.5872 75.6194 98.8618 76.0303 99.291C76.6097 99.8791 76.8994 100.843 76.8994 102.181V105.428C76.8994 106.868 77.0786 108.048 77.4365 108.969C77.803 109.889 78.3354 110.605 79.0342 111.116C79.733 111.628 80.5852 111.982 81.5908 112.178C82.1073 112.283 82.6597 112.361 83.248 112.412C84.2222 112.497 85.0166 111.692 85.0166 110.714C85.0166 109.736 84.2037 109.009 83.2637 108.74C83.0548 108.68 82.8679 108.608 82.7031 108.521C82.1663 108.24 81.7954 107.814 81.5908 107.243C81.3948 106.672 81.2969 105.943 81.2969 105.057V100.863C81.2968 100.216 81.1864 99.6061 80.9648 99.0352C80.7433 98.4643 80.3379 97.9661 79.75 97.54C79.1619 97.1054 78.3224 96.7689 77.2314 96.5303C77.1707 96.5164 77.1088 96.5033 77.0459 96.4902C77.0482 96.4504 77.0527 96.4105 77.0527 96.3701V96.127C77.0527 96.0902 77.0488 96.0538 77.0469 96.0176C77.1093 96.005 77.1711 95.9938 77.2314 95.9805C78.3224 95.7333 79.1619 95.3959 79.75 94.9697C80.3379 94.5351 80.7433 94.0328 80.9648 93.4619C81.1864 92.891 81.2968 92.2772 81.2969 91.6211V87.4277C81.2969 86.5414 81.3948 85.8122 81.5908 85.2412C81.7954 84.6703 82.1663 84.2483 82.7031 83.9756C82.8662 83.8902 83.0515 83.8183 83.2578 83.7588C84.2006 83.487 85.0164 82.7585 85.0166 81.7773C85.0166 80.796 84.2198 79.9881 83.2422 80.0732ZM97.6426 80.0732C96.6649 79.988 95.8672 80.7959 95.8672 81.7773C95.8674 82.7585 96.6841 83.487 97.627 83.7588C97.8333 83.8183 98.0185 83.8901 98.1816 83.9756C98.7185 84.2483 99.0852 84.6703 99.2812 85.2412C99.4858 85.8122 99.5879 86.5414 99.5879 87.4277V91.6211C99.5879 92.2772 99.6984 92.891 99.9199 93.4619C100.142 94.0328 100.547 94.5351 101.135 94.9697C101.723 95.3959 102.558 95.7333 103.641 95.9805C103.705 95.9945 103.77 96.0063 103.837 96.0195C103.835 96.0551 103.832 96.0909 103.832 96.127V96.3701C103.832 96.4098 103.836 96.4491 103.838 96.4883C103.771 96.502 103.705 96.5156 103.641 96.5303C102.558 96.7689 101.723 97.1054 101.135 97.54C100.547 97.9661 100.142 98.4642 99.9199 99.0352C99.6984 99.6061 99.5879 100.216 99.5879 100.863V105.057C99.5879 105.943 99.4858 106.672 99.2812 107.243C99.0852 107.814 98.7185 108.24 98.1816 108.521C98.0169 108.608 97.8299 108.68 97.6211 108.74C96.681 109.009 95.8672 109.736 95.8672 110.714C95.8672 111.692 96.6618 112.496 97.6357 112.412C98.2242 112.361 98.7774 112.283 99.2939 112.178C100.3 111.982 101.152 111.628 101.851 111.116C102.549 110.605 103.078 109.889 103.436 108.969C103.802 108.048 103.985 106.868 103.985 105.428V102.181C103.985 100.843 104.271 99.8791 104.842 99.291C105.259 98.8617 105.901 98.5872 106.769 98.4668C107.38 98.3819 107.885 97.8951 107.885 97.2773C107.885 97.1413 107.859 97.0112 107.814 96.8906C107.859 96.7243 107.885 96.5503 107.885 96.3701V96.127C107.885 95.9464 107.859 95.772 107.814 95.6055C107.859 95.4851 107.885 95.3555 107.885 95.2197C107.885 94.6019 107.381 94.1149 106.769 94.0312C105.901 93.9126 105.259 93.642 104.842 93.2188C104.271 92.6222 103.985 91.6544 103.985 90.3164V87.0566C103.985 85.6164 103.802 84.436 103.436 83.5156C103.078 82.5953 102.549 81.8795 101.851 81.3682C101.152 80.8568 100.3 80.5027 99.2939 80.3066C98.7793 80.202 98.2287 80.1244 97.6426 80.0732Z" fill="#2B93EE"/>
</svg>
