<svg width="24" height="24" viewBox="0 0 24 24" fill="none" xmlns="http://www.w3.org/2000/svg">
<path fill-rule="evenodd" clip-rule="evenodd" d="M22 19.1233C22 19.6075 21.6107 20 21.1304 20H2.86956C2.38932 20 2 19.6075 2 19.1233V4.87671C2 4.39252 2.38932 4 2.86957 4H21.1304C21.6107 4 22 4.39252 22 4.87671V19.1233ZM9.5 13.863C9.01975 13.863 8.63043 14.2555 8.63043 14.7397V17.8082C8.63043 18.2924 9.01975 18.6849 9.5 18.6849H19.8261C20.3063 18.6849 20.6957 18.2924 20.6957 17.8082V14.7397C20.6957 14.2555 20.3063 13.863 19.8261 13.863H9.5ZM3.30435 17.8082C3.30435 18.2924 3.69367 18.6849 4.17391 18.6849H6.45652C6.93677 18.6849 7.32609 18.2924 7.32609 17.8082V14.7397C7.32609 14.2555 6.93677 13.863 6.45652 13.863H4.17391C3.69367 13.863 3.30435 14.2555 3.30435 14.7397V17.8082ZM9.5 8.05479C9.01975 8.05479 8.63043 8.44731 8.63043 8.93151V11.6712C8.63043 12.1554 9.01975 12.5479 9.5 12.5479H19.8261C20.3063 12.5479 20.6957 12.1554 20.6957 11.6712V8.93151C20.6957 8.44731 20.3063 8.05479 19.8261 8.05479H9.5ZM3.30435 11.6712C3.30435 12.1554 3.69367 12.5479 4.17391 12.5479H6.45652C6.93677 12.5479 7.32609 12.1554 7.32609 11.6712V8.93151C7.32609 8.44731 6.93677 8.05479 6.45652 8.05479H4.17391C3.69367 8.05479 3.30435 8.44731 3.30435 8.93151V11.6712ZM8.63043 6.0274C8.63043 6.42081 8.94676 6.73973 9.33696 6.73973H19.9891C20.3793 6.73973 20.6957 6.42081 20.6957 6.0274C20.6957 5.63399 20.3793 5.31507 19.9891 5.31507H9.33696C8.94676 5.31507 8.63043 5.63399 8.63043 6.0274ZM3.30435 6.0274C3.30435 6.42081 3.62067 6.73973 4.01087 6.73973H6.61957C7.00977 6.73973 7.32609 6.42081 7.32609 6.0274C7.32609 5.63399 7.00977 5.31507 6.61957 5.31507H4.01087C3.62067 5.31507 3.30435 5.63399 3.30435 6.0274Z" fill="currentColor"/>
</svg>
