<svg width="48" height="48" viewBox="0 0 48 48" fill="none" xmlns="http://www.w3.org/2000/svg">
<path d="M18.7196 8.33803C20.6465 8.33803 22.4439 8.48713 24.1096 8.76324C24.7945 8.87677 25.0553 9.71463 24.644 10.274V10.274C24.4324 10.5617 24.0785 10.7144 23.7259 10.6572C22.3423 10.4328 20.8494 10.3002 19.2448 10.2765L18.7196 10.2727C10.9888 10.2727 4.93471 16.1252 4.93471 23.0902C4.93471 26.4131 6.73485 29.1875 9.10125 31.4257C11.4618 33.6583 14.1665 35.1473 15.5431 35.9068L17.712 37.0971C19.7292 38.1963 21.3037 39.0234 22.5465 39.5943C23.373 39.974 23.991 40.2115 24.4524 40.3406C24.5963 40.3809 24.7122 40.4061 24.8033 40.4228C24.8166 40.3671 24.8315 40.3013 24.8454 40.224C24.9999 39.3643 25.0074 38.0282 25.0074 35.9077V34.4109L26.4565 34.0349C30.3208 33.033 33.0562 31.3383 34.8246 29.3932C34.991 29.2102 35.2252 29.0941 35.4711 29.0678V29.0678C36.3142 28.9776 36.9691 29.8869 36.4095 30.5239C34.3494 32.8696 31.2081 34.8017 26.9421 35.9077L26.9393 37.3441C26.8971 43.6226 26.2646 43.9619 16.7792 38.7923L14.6083 37.6006C11.8555 36.0818 3 31.2376 3 23.0902C3 14.9428 10.0379 8.33803 18.7196 8.33803Z" fill="currentColor"/>
<path d="M28.2415 11.4718C28.6193 11.0941 29.2317 11.0947 29.6094 11.4725L34.0551 15.9181L38.1596 11.8136C38.5374 11.4359 39.1498 11.4365 39.5276 11.8143C39.9052 12.1921 39.9052 12.8038 39.5276 13.1816L35.423 17.2861L39.5276 21.3906C39.9052 21.7684 39.9052 22.3801 39.5276 22.7579C39.1498 23.1356 38.5374 23.1363 38.1596 22.7586L34.0551 18.654L29.6094 23.0997C29.2317 23.4774 28.6193 23.4781 28.2415 23.1004C27.8637 22.7226 27.8637 22.1095 28.2415 21.7317L32.6871 17.2861L28.2415 12.8404C27.8637 12.4627 27.8637 11.8496 28.2415 11.4718Z" fill="#E62D55"/>
</svg>
