<svg width="48" height="48" viewBox="0 0 48 48" fill="none" xmlns="http://www.w3.org/2000/svg">
<path d="M40.2584 26.5995C40.2583 23.5658 39.2829 20.0229 36.5554 17.2419C33.9237 14.5587 29.5559 12.4781 22.5508 12.3507L21.8646 12.3444H11.148C10.6775 12.3444 10.5106 12.9672 10.9181 13.2025L19.4587 18.1333C19.8986 18.3873 20.0493 18.9497 19.7953 19.3896C19.5414 19.8294 18.9789 19.9801 18.5391 19.7262L6.91968 13.0176C5.69344 12.3097 5.69344 10.5397 6.91968 9.83176L18.5388 3.12339C18.9788 2.86937 19.5414 3.02014 19.7954 3.46014C20.0493 3.90009 19.8986 4.4626 19.4586 4.71658L10.9189 9.64693C10.5115 9.88216 10.6784 10.505 11.1489 10.505H21.8646L22.5849 10.5117C29.9479 10.6462 34.8203 12.8461 37.8684 15.954C41.0039 19.1509 42.0977 23.1955 42.0977 26.5995C42.0977 32.7485 41.0634 37.4479 37.8527 40.5668C34.6854 43.6436 32.8328 44.9721 25.3141 44.9987C25.3138 44.9987 25.3134 44.999 25.3134 44.9993C25.3134 44.9997 25.3131 45 25.3128 45H25.1985C25.135 45 25.0835 44.9485 25.0835 44.885V44.0803C25.0835 43.5724 25.4993 43.1616 26.0071 43.1535C32.7246 43.0461 34.0204 41.7252 36.5711 39.2475C39.2233 36.671 40.2584 32.63 40.2584 26.5995Z" fill="currentColor"/>
<path d="M21.4048 43.1296C21.9127 43.1296 22.3245 43.5414 22.3245 44.0493C22.3245 44.5573 21.9127 44.969 21.4048 44.969H14.2772C13.7693 44.969 13.3575 44.5573 13.3575 44.0493C13.3575 43.5414 13.7693 43.1296 14.2772 43.1296H21.4048Z" fill="#2B93EE"/>
</svg>
