<svg width="48" height="48" viewBox="0 0 48 48" fill="none" xmlns="http://www.w3.org/2000/svg">
<path d="M43 33.6447L23.5 45L4 33.6447L7.58484 31.5571L8.33484 32.8672L7 33.6444L23.5 43.2526L39.9996 33.6444L38.6652 32.8672L39.4152 31.5571L43 33.6447ZM43 23.8109L23.5 35.1661L4 23.8109L7.58484 21.7233L8.33484 23.0334L7 23.8105L23.5 33.4187L39.9996 23.8105L38.6652 23.0334L39.4152 21.7233L43 23.8109ZM43 14.3553L23.5 25.7105L4 14.3553L23.5 3L43 14.3553ZM7 14.3553L23.5 23.9631L39.9996 14.3553L23.5 4.74708L7 14.3553Z" fill="currentColor"/>
</svg>
