<svg width="48" height="48" viewBox="0 0 48 48" fill="none" xmlns="http://www.w3.org/2000/svg">
<path fill-rule="evenodd" clip-rule="evenodd" d="M24.0882 3C35.1826 3 44.1764 11.9938 44.1764 23.0882C44.1764 28.9164 41.6932 34.1636 37.7285 37.8331L43.1593 43.2638C43.5565 43.661 43.5565 44.305 43.1593 44.7021C42.7621 45.0993 42.1182 45.0993 41.721 44.7021L36.1621 39.1432C32.801 41.6748 28.6202 43.1764 24.0882 43.1764C12.9938 43.1764 4 34.1826 4 23.0882C4 11.9938 12.9938 3 24.0882 3ZM24.0882 5.03425C14.1173 5.03425 6.03425 13.1173 6.03425 23.0882C6.03425 33.0591 14.1173 41.1422 24.0882 41.1422C34.0591 41.1422 42.1422 33.0591 42.1422 23.0882C42.1422 13.1173 34.0591 5.03425 24.0882 5.03425Z" fill="currentColor"/>
<path d="M24.3425 14.1884C24.9042 14.1884 25.3596 14.6438 25.3596 15.2055V22.3254H32.2252C32.787 22.3254 33.2423 22.7808 33.2423 23.3425C33.2423 23.9042 32.787 24.3596 32.2252 24.3596H25.3596V31.2252C25.3596 31.787 24.9042 32.2423 24.3425 32.2423C23.7808 32.2423 23.3254 31.787 23.3254 31.2252V24.3596H16.2055C15.6438 24.3596 15.1884 23.9042 15.1884 23.3425C15.1884 22.7808 15.6438 22.3254 16.2055 22.3254H23.3254V15.2055C23.3254 14.6438 23.7808 14.1884 24.3425 14.1884Z" fill="#2B93EE"/>
</svg>
